<?xml version="1.0" standalone="no"?><!DOCTYPE svg PUBLIC "-//W3C//DTD SVG 1.1//EN" "http://www.w3.org/Graphics/SVG/1.1/DTD/svg11.dtd"><svg t="1521975242016" class="icon" style="" viewBox="0 0 1024 1024" version="1.1" xmlns="http://www.w3.org/2000/svg" p-id="2173" xmlns:xlink="http://www.w3.org/1999/xlink" width="200" height="200"><defs><style type="text/css"></style></defs><path d="M384.12985 837.818182 197.818182 837.818182C159.261091 837.818182 128 801.346912 128 756.363635 128 711.380365 159.261091 674.909088 197.818182 674.909088L215.272727 674.909088 215.272727 450.909091C215.272727 302.641455 305.861818 179.115636 425.966545 151.380364 432.040727 102.039273 468.049455 64 512 64 555.950545 64 591.959273 102.039273 598.033455 151.380364 718.155635 179.115636 808.72727 302.641455 808.72727 450.909091L808.72727 674.909088 826.181818 674.909088C864.738912 674.909088 896 711.380365 896 756.363635 896 801.346912 864.738912 837.818182 826.181818 837.818182L639.870207 837.818182C636.829855 905.823571 580.757298 960 512 960 443.267596 960 387.171517 905.823571 384.12985 837.818182Z" p-id="2174" fill="#ffffff"></path></svg>