<?xml version="1.0" encoding="UTF-8" standalone="no"?>
<!-- Created with Inkscape (http://www.inkscape.org/) -->

<svg
   xmlns:dc="http://purl.org/dc/elements/1.1/"
   xmlns:cc="http://creativecommons.org/ns#"
   xmlns:rdf="http://www.w3.org/1999/02/22-rdf-syntax-ns#"
   xmlns:svg="http://www.w3.org/2000/svg"
   xmlns="http://www.w3.org/2000/svg"
   xmlns:sodipodi="http://sodipodi.sourceforge.net/DTD/sodipodi-0.dtd"
   xmlns:inkscape="http://www.inkscape.org/namespaces/inkscape"
   width="128"
   height="128"
   viewBox="0 0 128 128"
   id="svg2"
   version="1.1"
   inkscape:version="0.91 r13725"
   sodipodi:docname="tiny-design.svg"
   inkscape:export-filename="/Users/hastings/Documents/Design/Inkscape/tiny-design.png"
   inkscape:export-xdpi="105.41"
   inkscape:export-ydpi="105.41">
  <defs
     id="defs4" />
  <sodipodi:namedview
     id="base"
     pagecolor="#ffffff"
     bordercolor="#666666"
     borderopacity="1.0"
     inkscape:pageopacity="0.0"
     inkscape:pageshadow="2"
     inkscape:zoom="2.1539135"
     inkscape:cx="34.009492"
     inkscape:cy="79.778677"
     inkscape:document-units="px"
     inkscape:current-layer="layer1"
     showgrid="false"
     units="px"
     inkscape:window-width="1440"
     inkscape:window-height="775"
     inkscape:window-x="0"
     inkscape:window-y="1"
     inkscape:window-maximized="1"
     inkscape:snap-center="false"
     inkscape:snap-bbox="false"
     inkscape:bbox-nodes="false"
     inkscape:bbox-paths="true" />
  <metadata
     id="metadata7">
    <rdf:RDF>
      <cc:Work
         rdf:about="">
        <dc:format>image/svg+xml</dc:format>
        <dc:type
           rdf:resource="http://purl.org/dc/dcmitype/StillImage" />
        <dc:title></dc:title>
      </cc:Work>
    </rdf:RDF>
  </metadata>
  <g
     inkscape:label="Layer 1"
     inkscape:groupmode="layer"
     id="layer1"
     transform="translate(0,-924.36216)">
    <g
       id="g4188">
      <circle
         r="54.642857"
         cy="988.36218"
         cx="63.999748"
         id="path4409"
         style="opacity:1;fill:#5599ff;fill-opacity:1;fill-rule:evenodd;stroke:none;stroke-width:5;stroke-linecap:round;stroke-linejoin:round;stroke-miterlimit:4;stroke-dasharray:none;stroke-dashoffset:0;stroke-opacity:1" />
      <path
         id="circle4449"
         d="m 51.856053,963.71846 -27.855468,9.28711 19.357422,19.35743 -8.28711,12.4278 37.50586,37.5058 a 54.642857,54.642857 0 0 0 43.902343,-39.1914 l 0.0644,0.062 a 54.642857,54.642857 0 0 0 2.09961,-14.8047 54.642857,54.642857 0 0 0 -0.10156,-2.875 l -13.41016,-3.5918 -16.541012,-5.68164 0.125,0.12109 -36.859375,-12.61719 z"
         style="opacity:0.25899999;fill:#000000;fill-opacity:1;fill-rule:evenodd;stroke:none;stroke-width:5;stroke-linecap:round;stroke-linejoin:round;stroke-miterlimit:4;stroke-dasharray:none;stroke-dashoffset:0;stroke-opacity:1"
         inkscape:connector-curvature="0" />
      <g
         style="fill:#ffffff;fill-opacity:1;stroke:none"
         id="g4403"
         transform="matrix(0.3240225,0,0,0.3240225,88.795192,670.02167)">
        <path
           sodipodi:nodetypes="ccccccccccccccccccccccccccccccccccccc"
           inkscape:connector-curvature="0"
           id="path4405"
           d="m -196.22213,935.68954 -4.04061,-3.28299 10.67364,-13.33594 12.05479,-10.15011 14.64721,-5.05076 22.72843,0 3.78808,3.28299 1.51523,3.03046 3.78807,1.01015 4.29315,-1.26269 2.27284,-2.27284 1.76777,-2.27285 8.58629,0 2.02031,1.26269 1.01015,3.78808 0,14.89975 -1.26269,3.28299 -2.27284,1.51523 -8.83884,0 -1.01015,-1.51523 -1.26269,-1.51523 -0.8715,-3.25248 -2.66404,-1.2932 -3.53553,0 -6.39561,1.7137 -1.71082,2.96323 -1.45596,5.43372 0.47102,3.02133 -19.69798,0 0.25254,-6.31345 -1.01015,-3.283 -2.02031,-1.51523 -5.80837,-1.01015 -6.06092,1.26269 -9.09137,3.78807 -4.54569,2.52538 z"
           style="fill:#ffffff;fill-opacity:1;fill-rule:evenodd;stroke:none;stroke-width:1px;stroke-linecap:butt;stroke-linejoin:miter;stroke-opacity:1" />
        <path
           inkscape:connector-curvature="0"
           id="path4407"
           d="m -161.62441,939.22508 -0.50507,91.92392 1.76776,2.0203 4.04061,1.7677 12.87945,0 3.53553,-1.2627 2.27285,-3.0304 0,-1.7678 -4.79823,-89.90356 z"
           style="fill:#ffffff;fill-opacity:1;fill-rule:evenodd;stroke:none;stroke-width:1px;stroke-linecap:butt;stroke-linejoin:miter;stroke-opacity:1" />
      </g>
      <path
         inkscape:connector-curvature="0"
         id="path4324"
         style="font-style:normal;font-variant:normal;font-weight:normal;font-stretch:normal;font-size:medium;line-height:125%;font-family:'Bauhaus 93';-inkscape-font-specification:'Bauhaus 93, Normal';text-align:start;letter-spacing:0px;word-spacing:0px;writing-mode:lr-tb;text-anchor:start;fill:#ffffff;fill-opacity:1;stroke:none;stroke-width:1px;stroke-linecap:butt;stroke-linejoin:miter;stroke-opacity:1"
         d="m 62.028621,983.1752 0,19.4727 -7.304687,0 0,-19.4727 7.304687,0 z m -3.632812,-8.6914 q 1.484375,0 2.558594,1.05468 1.09375,1.03516 1.09375,2.46094 0,1.52344 -1.035157,2.5 -1.015625,0.97656 -2.617187,0.97656 -1.601563,0 -2.636719,-0.97656 -1.015625,-0.97656 -1.015625,-2.5 0,-1.42578 1.074219,-2.46094 1.09375,-1.05468 2.578125,-1.05468 z" />
      <path
         inkscape:connector-curvature="0"
         id="path4322"
         style="font-style:normal;font-variant:normal;font-weight:normal;font-stretch:normal;font-size:medium;line-height:125%;font-family:'Bauhaus 93';-inkscape-font-specification:'Bauhaus 93, Normal';text-align:start;letter-spacing:0px;word-spacing:0px;writing-mode:lr-tb;text-anchor:start;fill:#ffffff;fill-opacity:1;stroke:none;stroke-width:1px;stroke-linecap:butt;stroke-linejoin:miter;stroke-opacity:1"
         d="m 84.485454,1002.6479 -7.304687,0 0,-10.99613 q 0,-1.67969 -1.386719,-1.67969 -1.367188,0 -1.367188,1.67969 l 0,10.99613 -7.304687,0 0,-10.85942 q 0,-3.80859 2.519531,-6.40625 2.519531,-2.61718 6.171875,-2.61718 4.179688,0 6.699219,3.02734 1.972656,2.36328 1.972656,6.58203 l 0,10.27348 z" />
      <path
         inkscape:connector-curvature="0"
         id="path4320"
         style="font-style:normal;font-variant:normal;font-weight:normal;font-stretch:normal;font-size:medium;line-height:125%;font-family:'Bauhaus 93';-inkscape-font-specification:'Bauhaus 93, Normal';text-align:start;letter-spacing:0px;word-spacing:0px;writing-mode:lr-tb;text-anchor:start;fill:#ffffff;fill-opacity:1;stroke:none;stroke-width:1px;stroke-linecap:butt;stroke-linejoin:miter;stroke-opacity:1"
         d="m 90.61247,1011.0044 0,-6.3476 q 1.484375,0.625 2.597656,0.625 3.554688,0 4.609375,-4.0039 -1.914062,1.1328 -3.75,1.1328 -2.714843,0 -4.472656,-2.0117 -1.757812,-2.03132 -1.757812,-5.15628 l 0,-12.2461 7.304687,0 0,10.46875 q 0,1.73828 1.445313,1.73828 1.386716,0 1.386716,-1.91406 l 0,-10.29297 7.304691,0 0,17.38278 q 0,4.8633 -2.73437,7.8516 -3.261721,3.5547 -7.890631,3.5547 -2.03125,0 -4.042969,-0.7813 z" />
    </g>
  </g>
</svg>
